<svg width="200" height="200" xmlns="http://www.w3.org/2000/svg">
  <!-- 背景圆形 -->
  <circle cx="100" cy="100" r="95" fill="#6c5ce7" />
  <circle cx="100" cy="100" r="85" fill="white" />
  
  <!-- 漫画书图标 -->
  <g transform="translate(40, 50)">
    <!-- 书本底部 -->
    <path d="M10 10 L 110 10 L 110 90 L 10 90 Z" fill="#6c5ce7" stroke="#2d3436" stroke-width="2" />
    
    <!-- 书本页面 -->
    <path d="M60 10 L 60 90" fill="none" stroke="white" stroke-width="2" />
    
    <!-- 漫画人物 -->
    <circle cx="35" cy="40" r="15" fill="#fd79a8" />
    <circle cx="85" cy="40" r="15" fill="#00cec9" />
    
    <!-- 漫画人物面部特征 -->
    <circle cx="30" cy="35" r="2" fill="white" />
    <circle cx="40" cy="35" r="2" fill="white" />
    <path d="M30 45 Q 35 50, 40 45" fill="none" stroke="white" stroke-width="1.5" />
    
    <circle cx="80" cy="35" r="2" fill="white" />
    <circle cx="90" cy="35" r="2" fill="white" />
    <path d="M80 45 Q 85 50, 90 45" fill="none" stroke="white" stroke-width="1.5" />
    
    <!-- 对话框 -->
    <path d="M25 20 L 45 20 L 45 30 L 40 35 L 35 30 L 25 30 Z" fill="white" stroke="#2d3436" stroke-width="1" />
    <path d="M75 20 L 95 20 L 95 30 L 90 35 L 85 30 L 75 30 Z" fill="white" stroke="#2d3436" stroke-width="1" />
  </g>
  
  <!-- 视频播放图标 -->
  <g transform="translate(75, 150)">
    <circle cx="25" cy="0" r="20" fill="#fd79a8" />
    <polygon points="18,-10 18,10 35,0" fill="white" />
  </g>
  
  <!-- 装饰元素 -->
  <g opacity="0.2">
    <circle cx="30" cy="30" r="10" fill="#00cec9" />
    <circle cx="170" cy="30" r="10" fill="#00cec9" />
    <circle cx="30" cy="170" r="10" fill="#fd79a8" />
    <circle cx="170" cy="170" r="10" fill="#fd79a8" />
  </g>
</svg>